<svg xmlns="http://www.w3.org/2000/svg" width="381.0mm" height="210mm" viewBox="0 0 381.0 210">
<style>
  .bg   { fill:#faf9f6 }
  .wire { stroke:#7a8899; stroke-width:.18; fill:none }
  .body { stroke:#9aa7b5; stroke-width:.18; fill:none }
  .lbl  { fill:#7a8899; font:1.6px sans-serif }
  .ref  { fill:#556; font:1.6px sans-serif }
  .cap  { fill:#333; font:2.2px sans-serif }
  .note { fill:#444; font:2.4px sans-serif }
  @media (prefers-color-scheme: dark) {
    .bg{fill:#14171a} .wire{stroke:#4d5b6b} .body{stroke:#5c6b7a}
    .lbl,.ref{fill:#8494a5} .cap,.note{fill:#c8d2dc}
  }
</style>
<rect class="bg" x="0" y="0" width="381.0" height="210"/>
<rect x="0" y="0" width="297" height="210" fill="none" stroke="#c7c2b6" stroke-width=".3"/>
<line class="wire" x1="87.63" y1="43.18" x2="87.63" y2="46.99"/>
<line class="wire" x1="97.79" y1="129.54" x2="102.87" y2="129.54"/>
<line class="wire" x1="102.87" y1="106.68" x2="57.15" y2="106.68"/>
<line class="wire" x1="250.19" y1="156.21" x2="243.84" y2="156.21"/>
<line class="wire" x1="105.41" y1="168.91" x2="101.60" y2="168.91"/>
<line class="wire" x1="57.15" y1="106.68" x2="57.15" y2="93.98"/>
<line class="wire" x1="250.19" y1="143.51" x2="243.84" y2="143.51"/>
<line class="wire" x1="38.10" y1="168.91" x2="34.29" y2="168.91"/>
<line class="wire" x1="234.95" y1="137.16" x2="223.52" y2="137.16"/>
<line class="wire" x1="166.37" y1="66.04" x2="166.37" y2="67.31"/>
<line class="wire" x1="133.35" y1="80.01" x2="137.16" y2="80.01"/>
<line class="wire" x1="260.35" y1="137.16" x2="260.35" y2="143.51"/>
<line class="wire" x1="208.28" y1="154.94" x2="203.20" y2="154.94"/>
<line class="wire" x1="138.43" y1="35.56" x2="142.24" y2="35.56"/>
<line class="wire" x1="255.27" y1="137.16" x2="260.35" y2="137.16"/>
<line class="wire" x1="260.35" y1="156.21" x2="260.35" y2="157.48"/>
<line class="wire" x1="200.66" y1="73.66" x2="200.66" y2="67.31"/>
<line class="wire" x1="92.71" y1="129.54" x2="97.79" y2="129.54"/>
<line class="wire" x1="200.66" y1="67.31" x2="198.12" y2="67.31"/>
<line class="wire" x1="130.81" y1="43.18" x2="123.19" y2="43.18"/>
<line class="wire" x1="97.79" y1="68.58" x2="97.79" y2="69.85"/>
<line class="wire" x1="86.36" y1="168.91" x2="86.36" y2="167.64"/>
<line class="wire" x1="35.56" y1="173.99" x2="40.64" y2="173.99"/>
<line class="wire" x1="274.32" y1="137.16" x2="274.32" y2="138.43"/>
<line class="wire" x1="179.07" y1="46.99" x2="179.07" y2="40.64"/>
<line class="wire" x1="232.41" y1="152.40" x2="233.68" y2="152.40"/>
<line class="wire" x1="271.78" y1="137.16" x2="274.32" y2="137.16"/>
<line class="wire" x1="189.23" y1="154.94" x2="193.04" y2="154.94"/>
<line class="wire" x1="198.12" y1="73.66" x2="200.66" y2="73.66"/>
<line class="wire" x1="43.18" y1="93.98" x2="57.15" y2="93.98"/>
<line class="wire" x1="138.43" y1="35.56" x2="138.43" y2="38.10"/>
<line class="wire" x1="144.78" y1="19.05" x2="154.94" y2="19.05"/>
<line class="wire" x1="57.15" y1="91.44" x2="43.18" y2="91.44"/>
<line class="wire" x1="233.68" y1="152.40" x2="234.95" y2="152.40"/>
<line class="wire" x1="81.28" y1="80.01" x2="85.09" y2="80.01"/>
<line class="wire" x1="138.43" y1="38.10" x2="148.59" y2="38.10"/>
<line class="wire" x1="148.59" y1="73.66" x2="177.80" y2="73.66"/>
<line class="wire" x1="35.56" y1="175.26" x2="35.56" y2="173.99"/>
<line class="wire" x1="137.16" y1="80.01" x2="152.40" y2="80.01"/>
<line class="wire" x1="81.28" y1="168.91" x2="86.36" y2="168.91"/>
<line class="wire" x1="238.76" y1="149.86" x2="238.76" y2="143.51"/>
<line class="wire" x1="118.11" y1="80.01" x2="125.73" y2="80.01"/>
<line class="wire" x1="204.47" y1="81.28" x2="210.82" y2="81.28"/>
<line class="wire" x1="49.53" y1="171.45" x2="49.53" y2="168.91"/>
<line class="wire" x1="210.82" y1="81.28" x2="210.82" y2="78.74"/>
<line class="wire" x1="53.34" y1="129.54" x2="81.28" y2="129.54"/>
<line class="wire" x1="78.74" y1="168.91" x2="81.28" y2="168.91"/>
<line class="wire" x1="190.50" y1="40.64" x2="209.55" y2="40.64"/>
<line class="wire" x1="154.94" y1="29.21" x2="154.94" y2="31.75"/>
<line class="wire" x1="148.59" y1="38.10" x2="148.59" y2="73.66"/>
<line class="wire" x1="210.82" y1="81.28" x2="219.71" y2="81.28"/>
<line class="wire" x1="87.63" y1="54.61" x2="87.63" y2="55.88"/>
<line class="wire" x1="187.96" y1="67.31" x2="190.50" y2="67.31"/>
<line class="wire" x1="240.03" y1="149.86" x2="238.76" y2="149.86"/>
<line class="wire" x1="194.31" y1="83.82" x2="194.31" y2="81.28"/>
<line class="wire" x1="189.23" y1="156.21" x2="189.23" y2="154.94"/>
<line class="wire" x1="115.57" y1="43.18" x2="107.95" y2="43.18"/>
<line class="wire" x1="238.76" y1="128.27" x2="238.76" y2="130.81"/>
<line class="wire" x1="34.29" y1="173.99" x2="35.56" y2="173.99"/>
<line class="wire" x1="228.60" y1="160.02" x2="233.68" y2="160.02"/>
<line class="wire" x1="71.12" y1="43.18" x2="74.93" y2="43.18"/>
<line class="wire" x1="260.35" y1="137.16" x2="264.16" y2="137.16"/>
<line class="wire" x1="203.20" y1="160.02" x2="220.98" y2="160.02"/>
<line class="wire" x1="166.37" y1="30.48" x2="166.37" y2="27.94"/>
<line class="wire" x1="86.36" y1="168.91" x2="93.98" y2="168.91"/>
<line class="wire" x1="219.71" y1="81.28" x2="233.68" y2="81.28"/>
<line class="wire" x1="97.79" y1="77.47" x2="97.79" y2="80.01"/>
<line class="wire" x1="57.15" y1="43.18" x2="71.12" y2="43.18"/>
<line class="wire" x1="260.35" y1="156.21" x2="257.81" y2="156.21"/>
<line class="wire" x1="233.68" y1="160.02" x2="233.68" y2="152.40"/>
<line class="wire" x1="62.23" y1="96.52" x2="62.23" y2="80.01"/>
<line class="wire" x1="53.34" y1="88.90" x2="43.18" y2="88.90"/>
<line class="wire" x1="62.23" y1="96.52" x2="43.18" y2="96.52"/>
<line class="wire" x1="210.82" y1="88.90" x2="233.68" y2="88.90"/>
<line class="wire" x1="154.94" y1="31.75" x2="154.94" y2="35.56"/>
<line class="wire" x1="149.86" y1="35.56" x2="154.94" y2="35.56"/>
<line class="wire" x1="87.63" y1="33.02" x2="87.63" y2="31.75"/>
<line class="wire" x1="137.16" y1="106.68" x2="137.16" y2="80.01"/>
<line class="wire" x1="218.44" y1="152.40" x2="218.44" y2="154.94"/>
<line class="wire" x1="144.78" y1="19.05" x2="144.78" y2="21.59"/>
<line class="wire" x1="57.15" y1="43.18" x2="57.15" y2="91.44"/>
<line class="wire" x1="200.66" y1="73.66" x2="203.20" y2="73.66"/>
<line class="wire" x1="144.78" y1="31.75" x2="154.94" y2="31.75"/>
<line class="wire" x1="45.72" y1="168.91" x2="49.53" y2="168.91"/>
<line class="wire" x1="219.71" y1="81.28" x2="219.71" y2="80.01"/>
<line class="wire" x1="223.52" y1="137.16" x2="223.52" y2="130.81"/>
<line class="wire" x1="81.28" y1="129.54" x2="85.09" y2="129.54"/>
<line class="wire" x1="148.59" y1="129.54" x2="133.35" y2="129.54"/>
<line class="wire" x1="97.79" y1="80.01" x2="97.79" y2="83.82"/>
<line class="wire" x1="97.79" y1="80.01" x2="102.87" y2="80.01"/>
<line class="wire" x1="154.94" y1="17.78" x2="154.94" y2="19.05"/>
<line class="wire" x1="166.37" y1="40.64" x2="179.07" y2="40.64"/>
<line class="wire" x1="203.20" y1="154.94" x2="203.20" y2="160.02"/>
<line class="wire" x1="87.63" y1="43.18" x2="92.71" y2="43.18"/>
<line class="wire" x1="260.35" y1="143.51" x2="257.81" y2="143.51"/>
<line class="wire" x1="194.31" y1="81.28" x2="196.85" y2="81.28"/>
<line class="wire" x1="166.37" y1="40.64" x2="166.37" y2="44.45"/>
<line class="wire" x1="179.07" y1="40.64" x2="182.88" y2="40.64"/>
<line class="wire" x1="105.41" y1="171.45" x2="105.41" y2="168.91"/>
<line class="wire" x1="81.28" y1="133.35" x2="81.28" y2="129.54"/>
<line class="wire" x1="260.35" y1="135.89" x2="260.35" y2="137.16"/>
<line class="wire" x1="53.34" y1="129.54" x2="53.34" y2="88.90"/>
<line class="wire" x1="81.28" y1="83.82" x2="81.28" y2="80.01"/>
<line class="wire" x1="154.94" y1="35.56" x2="158.75" y2="35.56"/>
<line class="wire" x1="62.23" y1="80.01" x2="81.28" y2="80.01"/>
<line class="wire" x1="87.63" y1="40.64" x2="87.63" y2="43.18"/>
<line class="wire" x1="190.50" y1="73.66" x2="185.42" y2="73.66"/>
<line class="wire" x1="81.28" y1="168.91" x2="81.28" y2="171.45"/>
<line class="wire" x1="224.79" y1="152.40" x2="218.44" y2="152.40"/>
<line class="wire" x1="255.27" y1="135.89" x2="255.27" y2="137.16"/>
<line class="wire" x1="97.79" y1="142.24" x2="97.79" y2="140.97"/>
<line class="wire" x1="233.68" y1="97.79" x2="209.55" y2="97.79"/>
<line class="wire" x1="144.78" y1="29.21" x2="144.78" y2="31.75"/>
<line class="wire" x1="118.11" y1="106.68" x2="137.16" y2="106.68"/>
<line class="wire" x1="92.71" y1="80.01" x2="97.79" y2="80.01"/>
<line class="wire" x1="82.55" y1="43.18" x2="87.63" y2="43.18"/>
<line class="wire" x1="218.44" y1="154.94" x2="215.90" y2="154.94"/>
<line class="wire" x1="166.37" y1="52.07" x2="166.37" y2="55.88"/>
<line class="wire" x1="40.64" y1="173.99" x2="40.64" y2="175.26"/>
<line class="wire" x1="125.73" y1="129.54" x2="118.11" y2="129.54"/>
<line class="wire" x1="97.79" y1="119.38" x2="97.79" y2="118.11"/>
<line class="wire" x1="97.79" y1="129.54" x2="97.79" y2="133.35"/>
<line class="wire" x1="97.79" y1="127.00" x2="97.79" y2="129.54"/>
<line class="wire" x1="196.85" y1="119.38" x2="196.85" y2="118.11"/>
<line class="wire" x1="233.68" y1="105.41" x2="209.55" y2="105.41"/>
<line class="wire" x1="242.57" y1="137.16" x2="255.27" y2="137.16"/>
<line class="wire" x1="154.94" y1="19.05" x2="154.94" y2="21.59"/>
<line class="wire" x1="223.52" y1="130.81" x2="222.25" y2="130.81"/>
<line class="wire" x1="49.53" y1="168.91" x2="58.42" y2="168.91"/>
<line class="wire" x1="71.12" y1="46.99" x2="71.12" y2="43.18"/>
<line class="wire" x1="238.76" y1="143.51" x2="222.25" y2="143.51"/>
<rect class="body" x="27.94" y="78.99" width="7.62" height="24.89" rx=".5"/>
<text class="ref" x="31.75" y="90.84">J1</text>
<rect class="body" x="96.52" y="39.37" width="7.62" height="7.62" rx=".5"/>
<text class="ref" x="100.33" y="42.58">U2</text>
<rect class="body" x="76.20" y="42.16" width="5.08" height="2.03" rx=".5"/>
<text class="ref" x="78.74" y="42.58">R1</text>
<rect class="body" x="70.10" y="48.26" width="2.03" height="5.08" rx=".5"/>
<text class="ref" x="71.12" y="50.20">R2</text>
<rect class="body" x="86.36" y="34.92" width="2.54" height="3.18" rx=".5"/>
<text class="ref" x="87.63" y="36.23">D2</text>
<rect class="body" x="86.36" y="48.89" width="2.54" height="3.18" rx=".5"/>
<text class="ref" x="87.63" y="50.20">D3</text>
<rect class="body" x="101.60" y="48.26" width="2.54" height="1.27" rx=".5"/>
<rect class="body" x="86.36" y="55.88" width="2.54" height="1.27" rx=".5"/>
<rect class="body" x="87.12" y="29.97" width="1.02" height="1.78" rx=".5"/>
<rect class="body" x="106.68" y="76.20" width="7.62" height="7.62" rx=".5"/>
<text class="ref" x="110.49" y="79.41">U2</text>
<rect class="body" x="86.36" y="78.99" width="5.08" height="2.03" rx=".5"/>
<text class="ref" x="88.90" y="79.41">R3</text>
<rect class="body" x="80.26" y="85.09" width="2.03" height="5.08" rx=".5"/>
<text class="ref" x="81.28" y="87.03">R4</text>
<rect class="body" x="96.52" y="71.75" width="2.54" height="3.17" rx=".5"/>
<text class="ref" x="97.79" y="73.06">D4</text>
<rect class="body" x="96.52" y="85.72" width="2.54" height="3.17" rx=".5"/>
<text class="ref" x="97.79" y="87.03">D5</text>
<rect class="body" x="111.76" y="85.09" width="2.54" height="1.27" rx=".5"/>
<rect class="body" x="96.52" y="91.44" width="2.54" height="1.27" rx=".5"/>
<rect class="body" x="97.28" y="66.80" width="1.02" height="1.78" rx=".5"/>
<rect class="body" x="106.68" y="125.73" width="7.62" height="7.62" rx=".5"/>
<text class="ref" x="110.49" y="128.94">U2</text>
<rect class="body" x="86.36" y="128.52" width="5.08" height="2.03" rx=".5"/>
<text class="ref" x="88.90" y="128.94">R5</text>
<rect class="body" x="80.26" y="134.62" width="2.03" height="5.08" rx=".5"/>
<text class="ref" x="81.28" y="136.56">R6</text>
<rect class="body" x="96.52" y="121.28" width="2.54" height="3.17" rx=".5"/>
<text class="ref" x="97.79" y="122.59">D6</text>
<rect class="body" x="96.52" y="135.25" width="2.54" height="3.18" rx=".5"/>
<text class="ref" x="97.79" y="136.56">D7</text>
<rect class="body" x="111.76" y="134.62" width="2.54" height="1.27" rx=".5"/>
<rect class="body" x="96.52" y="142.24" width="2.54" height="1.27" rx=".5"/>
<rect class="body" x="97.28" y="116.33" width="1.02" height="1.78" rx=".5"/>
<rect class="body" x="106.68" y="102.87" width="7.62" height="7.62" rx=".5"/>
<text class="ref" x="110.49" y="106.08">U2</text>
<rect class="body" x="106.68" y="111.76" width="2.54" height="1.27" rx=".5"/>
<rect class="body" x="127.00" y="78.99" width="5.08" height="2.03" rx=".5"/>
<text class="ref" x="129.54" y="79.41">R12</text>
<rect class="body" x="127.00" y="128.52" width="5.08" height="2.03" rx=".5"/>
<text class="ref" x="129.54" y="128.94">R13</text>
<rect class="body" x="116.84" y="42.16" width="5.08" height="2.03" rx=".5"/>
<text class="ref" x="119.38" y="42.58">R8</text>
<rect class="body" x="80.01" y="91.44" width="2.54" height="1.27" rx=".5"/>
<rect class="body" x="80.01" y="140.97" width="2.54" height="1.27" rx=".5"/>
<rect class="body" x="69.85" y="54.61" width="2.54" height="1.27" rx=".5"/>
<rect class="body" x="43.18" y="100.33" width="1.27" height="2.54" rx=".5"/>
<rect class="body" x="134.34" y="40.36" width="5.64" height="5.64" rx=".5"/>
<text class="ref" x="135.89" y="42.58">Q1</text>
<rect class="body" x="137.16" y="48.26" width="2.54" height="1.27" rx=".5"/>
<rect class="body" x="143.51" y="34.54" width="5.08" height="2.03" rx=".5"/>
<text class="ref" x="146.05" y="34.96">R11</text>
<rect class="body" x="153.92" y="22.86" width="2.03" height="5.08" rx=".5"/>
<text class="ref" x="154.94" y="24.80">R7</text>
<rect class="body" x="162.28" y="32.74" width="5.64" height="5.64" rx=".5"/>
<text class="ref" x="163.83" y="34.96">Q2</text>
<rect class="body" x="154.43" y="15.24" width="1.02" height="2.54" rx=".5"/>
<rect class="body" x="165.86" y="25.40" width="1.02" height="2.54" rx=".5"/>
<rect class="body" x="165.35" y="45.72" width="2.03" height="5.08" rx=".5"/>
<text class="ref" x="166.37" y="47.66">R9</text>
<rect class="body" x="165.10" y="59.69" width="3.30" height="4.45" rx=".5"/>
<text class="ref" x="166.37" y="60.36">D8</text>
<rect class="body" x="22.86" y="167.64" width="5.08" height="7.62" rx=".5"/>
<text class="ref" x="25.40" y="170.85">P1</text>
<rect class="body" x="40.64" y="167.64" width="2.54" height="2.54" rx=".5"/>
<text class="ref" x="41.91" y="168.31">D1</text>
<rect class="body" x="34.29" y="175.26" width="2.54" height="1.27" rx=".5"/>
<rect class="body" x="47.24" y="172.47" width="4.57" height="3.81" rx=".5"/>
<text class="ref" x="49.53" y="174.66">C2</text>
<rect class="body" x="48.26" y="179.07" width="2.54" height="1.27" rx=".5"/>
<rect class="body" x="67.31" y="176.53" width="2.54" height="1.27" rx=".5"/>
<rect class="body" x="78.99" y="172.47" width="4.57" height="3.81" rx=".5"/>
<text class="ref" x="81.28" y="174.66">C1</text>
<rect class="body" x="80.01" y="179.07" width="2.54" height="1.27" rx=".5"/>
<rect class="body" x="95.25" y="167.89" width="5.08" height="2.03" rx=".5"/>
<text class="ref" x="97.79" y="168.31">R14</text>
<rect class="body" x="104.14" y="175.26" width="3.30" height="4.45" rx=".5"/>
<text class="ref" x="105.41" y="175.93">D9</text>
<rect class="body" x="104.14" y="181.61" width="2.54" height="1.27" rx=".5"/>
<rect class="body" x="85.85" y="165.86" width="1.02" height="1.78" rx=".5"/>
<rect class="body" x="178.05" y="48.26" width="2.03" height="5.08" rx=".5"/>
<text class="ref" x="179.07" y="50.20">R17</text>
<rect class="body" x="177.80" y="54.61" width="2.54" height="1.27" rx=".5"/>
<rect class="body" x="226.16" y="129.54" width="10.03" height="1.25" rx=".5"/>
<text class="ref" x="231.14" y="130.21">L1</text>
<rect class="body" x="196.34" y="116.33" width="1.02" height="1.78" rx=".5"/>
<rect class="body" x="187.96" y="156.21" width="2.54" height="1.27" rx=".5"/>
<rect class="body" x="259.84" y="133.35" width="1.02" height="2.54" rx=".5"/>
<rect class="body" x="265.18" y="134.87" width="3.81" height="4.57" rx=".5"/>
<text class="ref" x="267.97" y="136.56">C3</text>
<rect class="body" x="273.05" y="138.43" width="2.54" height="1.27" rx=".5"/>
<rect class="body" x="238.25" y="126.49" width="1.02" height="1.78" rx=".5"/>
<rect class="body" x="253.37" y="132.08" width="3.81" height="3.81" rx=".5"/>
<rect class="body" x="227.84" y="150.37" width="1.52" height="4.06" rx=".5"/>
<text class="ref" x="228.60" y="151.80">C5</text>
<rect class="body" x="234.95" y="151.13" width="1.27" height="2.54" rx=".5"/>
<rect class="body" x="251.46" y="155.19" width="5.08" height="2.03" rx=".5"/>
<text class="ref" x="254.00" y="155.61">R15</text>
<rect class="body" x="251.46" y="142.49" width="5.08" height="2.03" rx=".5"/>
<text class="ref" x="254.00" y="142.91">R16</text>
<rect class="body" x="259.08" y="157.48" width="2.54" height="1.27" rx=".5"/>
<rect class="body" x="179.07" y="127.00" width="35.56" height="20.32" rx=".5"/>
<text class="ref" x="196.85" y="136.56">U4</text>
<rect class="body" x="224.03" y="157.99" width="1.52" height="4.06" rx=".5"/>
<text class="ref" x="224.79" y="159.42">C4</text>
<rect class="body" x="209.55" y="153.92" width="5.08" height="2.03" rx=".5"/>
<text class="ref" x="212.09" y="154.34">R10</text>
<rect class="body" x="237.49" y="135.89" width="3.18" height="2.54" rx=".5"/>
<text class="ref" x="238.76" y="136.56">D10</text>
<rect class="body" x="38.73" y="175.26" width="3.81" height="3.81" rx=".5"/>
<rect class="body" x="165.10" y="67.31" width="2.54" height="1.27" rx=".5"/>
<rect class="body" x="184.15" y="39.62" width="5.08" height="2.03" rx=".5"/>
<text class="ref" x="186.69" y="40.04">R18</text>
<rect class="body" x="242.06" y="146.05" width="3.05" height="7.62" rx=".5"/>
<text class="ref" x="243.84" y="149.26">RV1</text>
<rect class="body" x="187.45" y="65.53" width="1.02" height="1.78" rx=".5"/>
<rect class="body" x="206.73" y="70.84" width="5.64" height="5.64" rx=".5"/>
<text class="ref" x="208.28" y="73.06">Q3</text>
<rect class="body" x="191.77" y="72.64" width="5.08" height="2.03" rx=".5"/>
<text class="ref" x="194.31" y="73.06">R19</text>
<rect class="body" x="191.77" y="66.29" width="5.08" height="2.03" rx=".5"/>
<text class="ref" x="194.31" y="66.71">R20</text>
<rect class="body" x="198.12" y="80.26" width="5.08" height="2.03" rx=".5"/>
<text class="ref" x="200.66" y="80.68">R21</text>
<rect class="body" x="193.04" y="87.63" width="3.30" height="4.44" rx=".5"/>
<text class="ref" x="194.31" y="88.30">D12</text>
<rect class="body" x="193.04" y="93.98" width="2.54" height="1.27" rx=".5"/>
<rect class="body" x="210.31" y="66.80" width="1.02" height="1.78" rx=".5"/>
<rect class="body" x="179.71" y="72.39" width="3.18" height="2.54" rx=".5"/>
<text class="ref" x="181.61" y="73.06">D11</text>
<rect class="body" x="218.82" y="68.96" width="3.40" height="6.86" rx=".5"/>
<text class="ref" x="219.71" y="71.79">JP1</text>
<rect class="body" x="219.20" y="62.99" width="1.02" height="1.78" rx=".5"/>
<rect class="body" x="142.75" y="24.64" width="4.06" height="1.52" rx=".5"/>
<text class="ref" x="144.78" y="24.80">C9</text>
<rect class="body" x="161.77" y="171.93" width="1.57" height="1.57" rx=".5"/>
<text class="ref" x="162.56" y="172.12">P101</text>
<rect class="body" x="161.77" y="175.74" width="1.57" height="1.57" rx=".5"/>
<text class="ref" x="162.56" y="175.93">P102</text>
<rect class="body" x="161.77" y="179.55" width="1.57" height="1.57" rx=".5"/>
<text class="ref" x="162.56" y="179.74">P103</text>
<rect class="body" x="161.77" y="183.36" width="1.57" height="1.57" rx=".5"/>
<text class="ref" x="162.56" y="183.55">P104</text>
<rect class="body" x="161.77" y="187.17" width="1.57" height="1.57" rx=".5"/>
<text class="ref" x="162.56" y="187.36">P105</text>
<rect class="body" x="161.77" y="190.98" width="1.57" height="1.57" rx=".5"/>
<text class="ref" x="162.56" y="191.17">P106</text>
<rect class="body" x="107.95" y="85.09" width="2.54" height="1.27" rx=".5"/>
<rect class="body" x="110.49" y="111.76" width="2.54" height="1.27" rx=".5"/>
<rect class="body" x="107.95" y="134.62" width="2.54" height="1.27" rx=".5"/>
<rect class="body" x="108.71" y="122.68" width="1.02" height="1.78" rx=".5"/>
<rect class="body" x="111.25" y="99.82" width="1.02" height="1.78" rx=".5"/>
<rect class="body" x="108.71" y="73.15" width="1.02" height="1.78" rx=".5"/>
<rect class="body" x="97.79" y="48.26" width="2.54" height="1.27" rx=".5"/>
<rect class="body" x="98.55" y="36.32" width="1.02" height="1.78" rx=".5"/>
<rect class="body" x="63.50" y="166.37" width="10.16" height="7.62" rx=".5"/>
<text class="ref" x="68.58" y="169.58">U3</text>
<text class="lbl" x="139.70" y="79.51">DATA-RB7</text>
<text class="lbl" x="134.62" y="129.04">CLOCK-RB6</text>
<text class="lbl" x="68.58" y="106.18">PC-DATA-IN</text>
<text class="lbl" x="213.36" y="104.91">CLOCK-RB6</text>
<text class="lbl" x="63.50" y="79.51">PC-DATA-OUT</text>
<text class="lbl" x="196.85" y="40.14">VPP/MCLR</text>
<text class="lbl" x="58.42" y="42.68">VPP_ON</text>
<text class="lbl" x="59.69" y="129.04">PC-CLOCK-OUT</text>
<text class="lbl" x="213.36" y="88.40">VPP/MCLR</text>
<text class="lbl" x="212.09" y="97.29">DATA-RB7</text>
<rect class="body" x="233.68" y="78.74" width="39.37" height="30.48"/>
<text class="ref" x="234.68" y="82.74">pic_sockets</text>
<circle cx="43.18" cy="101.60" r="2.4" fill="none" stroke="#e08a1e" stroke-width=".5"/><text x="43.18" y="102.40" text-anchor="middle" fill="#e08a1e" font="2.2px sans-serif" style="font:2.2px sans-serif">1</text><title>WARN: GND is drawn sideways — power symbols read vertically</title>
<circle cx="234.95" cy="152.40" r="2.4" fill="none" stroke="#e08a1e" stroke-width=".5"/><text x="234.95" y="153.20" text-anchor="middle" fill="#e08a1e" font="2.2px sans-serif" style="font:2.2px sans-serif">2</text><title>WARN: GND is drawn sideways — power symbols read vertically</title>
<circle cx="82.55" cy="43.18" r="2.4" fill="none" stroke="#e08a1e" stroke-width=".5"/><text x="82.55" y="43.98" text-anchor="middle" fill="#e08a1e" font="2.2px sans-serif" style="font:2.2px sans-serif">3</text><title>WARN: unnamed net carries 4 pins (D2, D3, R1, U2) — name it after what it carries, not after where it happens to start</title>
<circle cx="92.71" cy="80.01" r="2.4" fill="none" stroke="#e08a1e" stroke-width=".5"/><text x="92.71" y="80.81" text-anchor="middle" fill="#e08a1e" font="2.2px sans-serif" style="font:2.2px sans-serif">4</text><title>WARN: unnamed net carries 4 pins (D4, D5, R3, U2) — name it after what it carries, not after where it happens to start</title>
<circle cx="92.71" cy="129.54" r="2.4" fill="none" stroke="#e08a1e" stroke-width=".5"/><text x="92.71" y="130.34" text-anchor="middle" fill="#e08a1e" font="2.2px sans-serif" style="font:2.2px sans-serif">5</text><title>WARN: unnamed net carries 4 pins (D6, D7, R5, U2) — name it after what it carries, not after where it happens to start</title>
<circle cx="144.78" cy="29.21" r="2.4" fill="none" stroke="#e08a1e" stroke-width=".5"/><text x="144.78" y="30.01" text-anchor="middle" fill="#e08a1e" font="2.2px sans-serif" style="font:2.2px sans-serif">6</text><title>WARN: unnamed net carries 4 pins (C9, Q2, R11, R7) — name it after what it carries, not after where it happens to start</title>
<circle cx="166.37" cy="40.64" r="2.4" fill="none" stroke="#e08a1e" stroke-width=".5"/><text x="166.37" y="41.44" text-anchor="middle" fill="#e08a1e" font="2.2px sans-serif" style="font:2.2px sans-serif">7</text><title>WARN: unnamed net carries 4 pins (Q2, R17, R18, R9) — name it after what it carries, not after where it happens to start</title>
<text class="note" x="300.0" y="6.0">pic_programmer — 7 finding(s)</text>
<text x="300.0" y="9.2" fill="#e08a1e" style="font:1.9px sans-serif">! 1. GND is drawn sideways — power symbols</text>
<text x="300.0" y="11.6" fill="#e08a1e" style="font:1.9px sans-serif">read vertically</text>
<text x="300.0" y="17.2" fill="#e08a1e" style="font:1.9px sans-serif">! 2. GND is drawn sideways — power symbols</text>
<text x="300.0" y="19.6" fill="#e08a1e" style="font:1.9px sans-serif">read vertically</text>
<text x="300.0" y="25.2" fill="#e08a1e" style="font:1.9px sans-serif">! 3. unnamed net carries 4 pins (D2, D3, R1,</text>
<text x="300.0" y="27.6" fill="#e08a1e" style="font:1.9px sans-serif">U2) — name it after what it carries, not after</text>
<text x="300.0" y="30.0" fill="#e08a1e" style="font:1.9px sans-serif">where it happens to start</text>
<text x="300.0" y="35.6" fill="#e08a1e" style="font:1.9px sans-serif">! 4. unnamed net carries 4 pins (D4, D5, R3,</text>
<text x="300.0" y="38.0" fill="#e08a1e" style="font:1.9px sans-serif">U2) — name it after what it carries, not after</text>
<text x="300.0" y="40.4" fill="#e08a1e" style="font:1.9px sans-serif">where it happens to start</text>
<text x="300.0" y="46.0" fill="#e08a1e" style="font:1.9px sans-serif">! 5. unnamed net carries 4 pins (D6, D7, R5,</text>
<text x="300.0" y="48.4" fill="#e08a1e" style="font:1.9px sans-serif">U2) — name it after what it carries, not after</text>
<text x="300.0" y="50.8" fill="#e08a1e" style="font:1.9px sans-serif">where it happens to start</text>
<text x="300.0" y="56.4" fill="#e08a1e" style="font:1.9px sans-serif">! 6. unnamed net carries 4 pins (C9, Q2, R11,</text>
<text x="300.0" y="58.8" fill="#e08a1e" style="font:1.9px sans-serif">R7) — name it after what it carries, not after</text>
<text x="300.0" y="61.2" fill="#e08a1e" style="font:1.9px sans-serif">where it happens to start</text>
<text x="300.0" y="66.8" fill="#e08a1e" style="font:1.9px sans-serif">! 7. unnamed net carries 4 pins (Q2, R17, R18,</text>
<text x="300.0" y="69.2" fill="#e08a1e" style="font:1.9px sans-serif">R9) — name it after what it carries, not after</text>
<text x="300.0" y="71.6" fill="#e08a1e" style="font:1.9px sans-serif">where it happens to start</text>
</svg>